<svg xmlns="http://www.w3.org/2000/svg" version="1.0" preserveAspectRatio="xMidYMid meet" viewBox="52.1 10.18 110.4 298.82"><g transform="translate(0.000000,321.000000) scale(0.100000,-0.100000)" fill="#000000" stroke="none"><path d="M931 3091 c-41 -14 -72 -38 -138 -102 -46 -46 -93 -99 -104 -117 -81 -128 -56 -388 45 -471 15 -12 11 -19 -40 -73 l-57 -59 5 -78 c6 -100 42 -171 112 -218 68 -46 104 -55 257 -60 198 -7 224 2 349 123 130 126 145 158 145 314 0 129 -15 187 -67 253 l-30 39 52 53 53 53 -5 79 c-7 131 -53 198 -168 252 -50 23 -69 25 -205 28 -128 3 -158 1 -204 -16z m331 -32 c71 -15 119 -41 156 -83 37 -42 52 -91 52 -169 l0 -58 -92 3 -93 3 -5 55 c-6 66 -9 68 -164 69 -141 1 -146 -3 -146 -109 0 -108 -1 -107 185 -112 162 -4 184 -10 239 -64 52 -53 69 -100 74 -210 7 -161 -33 -255 -131 -306 -80 -41 -333 -36 -422 9 -82 41 -126 115 -129 212 l-1 66 93 3 92 3 0 -44 c0 -74 10 -80 147 -85 164 -6 163 -6 163 111 0 59 -4 97 -12 105 -8 8 -56 12 -148 12 -192 1 -254 28 -306 137 -24 51 -28 70 -28 153 -1 161 54 261 161 294 58 18 240 21 315 5z m-514 -261 c-5 -32 -28 -35 -28 -4 0 17 5 26 16 26 10 0 14 -7 12 -22z m-48 -63 c0 -30 -4 -55 -10 -55 -5 0 -10 25 -10 55 0 30 5 55 10 55 6 0 10 -25 10 -55z m48 -49 c-2 -31 -7 -57 -13 -59 -11 -2 -20 97 -10 121 12 32 26 -6 23 -62z m376 48 c9 -3 16 -12 16 -20 0 -11 -16 -14 -65 -14 -58 0 -65 2 -65 20 0 17 7 20 49 20 27 0 56 -3 65 -6z m-424 -99 c0 -14 -4 -25 -10 -25 -5 0 -10 11 -10 25 0 14 5 25 10 25 6 0 10 -11 10 -25z m48 -327 c-5 -32 -28 -35 -28 -4 0 17 5 26 16 26 10 0 14 -7 12 -22z m392 -3 c0 -23 -3 -25 -49 -25 -62 0 -81 7 -81 31 0 17 8 19 65 19 63 0 65 -1 65 -25z m-440 -60 c0 -19 -4 -35 -10 -35 -5 0 -10 16 -10 35 0 19 5 35 10 35 6 0 10 -16 10 -35z m48 -26 c-2 -19 -7 -33 -13 -32 -12 3 -19 49 -10 71 10 26 27 -2 23 -39z m-48 -49 c0 -11 -4 -20 -10 -20 -5 0 -10 9 -10 20 0 11 5 20 10 20 6 0 10 -9 10 -20z"></path><path d="M524 1646 c-3 -8 -4 -29 -2 -48 l3 -33 550 0 550 0 0 40 0 40 -55 6 c-30 3 -277 6 -548 8 -421 1 -493 0 -498 -13z m436 -16 c0 -5 -2 -10 -4 -10 -3 0 -8 5 -11 10 -3 6 -1 10 4 10 6 0 11 -4 11 -10z m363 -22 c-8 -14 -19 -8 -20 12 -1 16 1 17 12 7 7 -6 11 -15 8 -19z m77 28 c0 -2 -7 -6 -15 -10 -8 -3 -15 -1 -15 4 0 6 7 10 15 10 8 0 15 -2 15 -4z m20 -11 c0 -8 -4 -15 -10 -15 -5 0 -7 7 -4 15 4 8 8 15 10 15 2 0 4 -7 4 -15z m39 1 c8 -10 8 -16 -1 -24 -10 -8 -13 -4 -13 14 0 28 -1 28 14 10z m-425 -5 c6 -9 -35 -24 -43 -15 -6 5 18 24 31 24 4 0 9 -4 12 -9z m186 -11 c0 -5 -7 -7 -15 -4 -8 4 -12 10 -9 15 6 11 24 2 24 -11z m132 -6 c-3 -15 -8 -22 -14 -16 -9 9 -1 42 12 42 4 0 5 -12 2 -26z m-402 -4 c0 -5 -5 -10 -11 -10 -5 0 -7 5 -4 10 3 6 8 10 11 10 2 0 4 -4 4 -10z m320 1 c0 -17 -18 -21 -24 -6 -3 9 0 15 9 15 8 0 15 -4 15 -9z m24 -7 c3 -8 2 -12 -4 -9 -6 3 -10 10 -10 16 0 14 7 11 14 -7z m231 6 c3 -5 1 -10 -4 -10 -6 0 -11 5 -11 10 0 6 2 10 4 10 3 0 8 -4 11 -10z"></path><path d="M704 1248 c-41 -39 -74 -80 -74 -90 0 -11 59 -167 130 -347 l130 -327 0 -166 c0 -205 -5 -198 137 -198 l100 0 71 74 72 74 0 161 0 162 131 335 c112 287 130 339 121 359 -14 30 -55 39 -157 33 l-75 -3 -65 -65 c-56 -55 -69 -76 -93 -142 -15 -43 -29 -78 -32 -78 -3 0 -28 59 -55 131 -29 79 -57 136 -69 145 -14 9 -49 14 -109 14 l-89 0 -74 -72z m326 -158 c69 -179 91 -212 122 -187 9 6 43 84 76 172 33 88 64 168 67 178 6 14 21 17 101 17 52 0 94 -3 94 -6 0 -4 -57 -151 -127 -328 l-128 -321 -5 -175 -5 -175 -92 -3 -93 -3 0 164 0 163 -133 335 c-74 184 -132 338 -130 342 3 4 45 6 95 5 l91 -3 67 -175z m-235 -183 c51 -125 88 -230 83 -233 -5 -3 -11 -4 -13 -3 -6 7 -185 452 -185 461 0 6 5 8 11 6 6 -2 53 -106 104 -231z m9 130 c18 -49 19 -57 7 -57 -9 0 -41 71 -41 90 0 25 19 6 34 -33z m80 -195 c37 -91 42 -112 27 -112 -9 0 -81 170 -81 190 0 31 22 -1 54 -78z m106 -383 c0 -17 -4 -28 -10 -24 -5 3 -10 17 -10 31 0 13 5 24 10 24 6 0 10 -14 10 -31z m-40 -59 c0 -27 -4 -52 -10 -55 -6 -4 -10 17 -10 55 0 38 4 59 10 55 6 -3 10 -28 10 -55z m40 -45 c0 -37 -4 -65 -10 -65 -6 0 -10 28 -10 65 0 37 4 65 10 65 6 0 10 -28 10 -65z m-40 -60 c0 -14 -4 -25 -10 -25 -5 0 -10 11 -10 25 0 14 5 25 10 25 6 0 10 -11 10 -25z"></path></g></svg>