<svg xmlns="http://www.w3.org/2000/svg" version="1.0" preserveAspectRatio="xMidYMid meet" viewBox="67.8 56 318.1 132.01"><g transform="translate(0.000000,230.000000) scale(0.100000,-0.100000)" fill="#1c1c1c" stroke="none"><path d="M1250 1726 c-164 -35 -319 -180 -370 -342 -15 -49 -20 -94 -20 -175 l0 -109 630 0 630 0 0 89 c0 118 -13 182 -55 268 -66 135 -211 247 -354 273 -73 14 -393 11 -461 -4z"></path><path d="M2220 1085 l0 -655 60 0 60 0 0 655 0 655 -60 0 -60 0 0 -655z"></path><path d="M2462 1688 c30 -79 181 -489 250 -678 33 -91 63 -168 67 -173 4 -4 19 25 34 65 77 214 172 472 198 542 17 43 48 127 69 187 l39 109 -339 0 -338 0 20 -52z"></path><path d="M3159 1713 c-5 -16 -25 -68 -44 -118 -18 -49 -79 -214 -135 -365 -56 -151 -131 -354 -167 -450 -36 -96 -80 -217 -99 -268 l-33 -92 346 2 345 3 38 105 c21 58 88 240 150 405 61 165 142 383 180 485 37 102 79 215 93 253 l26 67 -345 0 -344 0 -11 -27z"></path><path d="M682 927 c3 -127 5 -135 39 -207 66 -138 191 -246 328 -282 79 -20 406 -25 493 -7 184 38 354 208 388 388 5 29 10 96 10 147 l0 94 -631 0 -631 0 4 -133z"></path></g></svg>