<svg xmlns="http://www.w3.org/2000/svg" version="1.0" preserveAspectRatio="xMidYMid meet" viewBox="106.9 44.98 318.1 136.02"><g transform="translate(0.000000,219.000000) scale(0.100000,-0.100000)" fill="#000000" stroke="none"><path d="M2113 1721 c-75 -25 -136 -80 -172 -153 -26 -52 -31 -73 -31 -135 l0 -73 375 0 375 0 0 58 c0 99 -23 156 -93 227 -50 51 -73 66 -116 79 -78 23 -269 21 -338 -3z"></path><path d="M2683 1723 c4 -15 54 -153 169 -466 11 -32 24 -55 29 -50 4 4 46 114 93 243 46 129 89 247 95 263 l11 27 -201 0 c-187 0 -201 -1 -196 -17z"></path><path d="M3105 1728 c-55 -153 -259 -705 -280 -761 -7 -16 5 -17 200 -15 l207 3 40 110 c22 61 78 214 125 340 46 127 93 254 103 283 l20 52 -205 0 c-156 0 -207 -3 -210 -12z"></path><path d="M1800 1267 c0 -35 7 -86 15 -115 21 -68 97 -152 166 -181 46 -20 64 -22 207 -19 177 3 206 12 274 80 60 60 81 111 86 211 l4 87 -376 0 -376 0 0 -63z"></path><path d="M1792 828 l3 -23 858 -3 857 -2 0 25 0 25 -861 0 -860 0 3 -22z"></path><path d="M1134 687 c-20 -18 -28 -34 -28 -60 -1 -28 -5 -37 -18 -37 -30 0 -23 -57 11 -91 26 -25 37 -29 86 -29 50 0 60 4 87 30 24 24 29 37 26 61 -6 37 20 51 72 40 l34 -7 -3 -62 -2 -62 60 0 61 0 0 65 0 65 30 0 c30 0 30 1 30 55 l0 55 -120 0 -120 0 0 -42 -1 -43 -14 32 c-18 41 -42 53 -109 53 -43 0 -61 -5 -82 -23z"></path><path d="M1680 707 c0 -2 11 -37 25 -77 14 -40 23 -75 21 -78 -2 -2 -15 28 -27 67 -13 39 -25 71 -28 71 -5 0 -69 -169 -79 -207 -3 -10 18 -13 78 -13 80 0 81 0 74 23 -12 39 -11 43 4 10 l15 -33 124 0 124 0 -3 87 -3 87 -55 33 -55 33 -3 -110 c-1 -61 -6 -110 -10 -110 -4 0 -25 50 -46 110 l-40 110 -58 0 c-32 0 -58 -1 -58 -3z"></path><path d="M2020 623 l0 -88 50 -27 c28 -16 55 -28 60 -28 6 0 10 45 10 115 l0 115 -60 0 -60 0 0 -87z"></path><path d="M2150 590 l0 -120 123 3 122 2 0 55 0 55 -63 0 -62 0 0 63 0 62 -60 0 -60 0 0 -120z"></path><path d="M2411 590 l0 -120 100 0 100 0 -1 63 c-3 111 0 167 8 167 4 0 18 -31 31 -70 13 -38 29 -71 35 -73 8 -3 7 -12 -2 -31 -23 -50 -17 -56 48 -56 33 0 60 1 60 3 0 2 18 52 40 113 22 60 40 112 40 117 0 4 -103 7 -229 7 l-230 0 0 -120z"></path><path d="M3026 643 c14 -38 30 -74 36 -80 7 -9 7 -23 -1 -44 -17 -48 -16 -49 48 -49 l59 0 30 78 c16 42 35 94 43 115 7 20 17 37 21 37 4 0 8 -52 8 -115 l0 -115 99 0 100 0 0 120 0 120 -169 0 -168 0 -17 -51 c-9 -28 -19 -48 -21 -46 -2 2 3 23 11 47 8 23 15 44 15 46 0 2 -27 4 -60 4 l-59 0 25 -67z"></path><path d="M3480 616 c0 -93 0 -95 31 -120 18 -15 43 -26 60 -26 l29 0 0 120 0 120 -60 0 -60 0 0 -94z"></path><path d="M3610 590 c0 -112 1 -120 20 -120 33 0 71 23 86 51 9 18 14 58 14 109 l0 80 -60 0 -60 0 0 -120z"></path><path d="M3740 590 l0 -120 60 0 60 0 0 35 c0 19 2 35 3 35 2 0 28 -13 58 -30 30 -16 57 -30 62 -30 4 0 7 19 7 43 l1 42 13 -30 c17 -40 37 -55 80 -62 l36 -6 0 122 0 121 -28 0 c-36 0 -71 -25 -88 -64 l-13 -31 -1 48 0 47 -60 0 -60 0 0 -34 0 -35 -61 35 c-33 18 -63 34 -65 34 -2 0 -4 -54 -4 -120z"></path><path d="M4131 574 l0 -136 29 -29 c19 -19 39 -29 59 -29 l31 0 0 139 c0 136 0 139 -26 165 -18 17 -37 26 -60 26 l-33 0 0 -136z"></path></g></svg>