<svg xmlns="http://www.w3.org/2000/svg" version="1.0" preserveAspectRatio="xMidYMid meet" viewBox="13 11.2 296 265.8"><g transform="translate(0.000000,290.000000) scale(0.100000,-0.100000)" fill="#8a8a8a" stroke="none"><path d="M1608 2783 l-1478 -3 0 -1325 0 -1325 1480 0 1480 0 0 1330 c0 732 -1 1329 -2 1328 -2 -2 -668 -4 -1480 -5z m1402 -1328 l0 -1245 -1400 0 -1400 0 0 1245 0 1245 1400 0 1400 0 0 -1245z"></path><path d="M1045 2459 c-127 -21 -178 -55 -351 -231 -147 -149 -161 -170 -200 -283 -25 -72 -27 -94 -28 -225 0 -209 38 -327 141 -437 l43 -47 -92 -93 -92 -93 -4 -68 c-15 -269 116 -458 369 -529 54 -15 104 -18 314 -18 344 0 355 4 574 217 147 143 169 175 208 285 26 73 27 88 27 248 0 156 -2 176 -26 247 -28 85 -70 157 -118 203 l-30 29 91 93 92 93 -5 123 c-6 143 -25 204 -92 295 -83 112 -214 175 -401 192 -121 11 -351 11 -420 -1z m565 -97 c189 -67 280 -199 280 -408 l0 -95 -157 3 -158 3 -5 82 c-4 58 -10 87 -21 99 -38 38 -427 47 -482 12 -32 -21 -42 -87 -35 -220 8 -138 -5 -132 296 -139 136 -3 261 -10 277 -16 140 -48 232 -156 270 -315 19 -83 19 -283 0 -367 -40 -170 -154 -286 -313 -320 -29 -6 -131 -11 -226 -11 -289 0 -414 36 -519 150 -77 83 -99 144 -101 280 l-1 105 155 0 155 0 6 -75 c3 -41 9 -82 13 -92 16 -36 63 -43 279 -43 264 0 247 -13 247 192 0 139 -1 145 -25 168 -24 25 -25 25 -233 25 -227 0 -287 7 -368 44 -158 73 -247 273 -231 520 13 189 81 321 204 393 85 49 110 53 378 50 231 -2 255 -4 315 -25z m-970 -427 c0 -33 -4 -45 -15 -45 -11 0 -15 11 -15 38 0 21 3 42 7 45 16 16 23 4 23 -38z m-70 -105 c0 -83 -1 -90 -20 -90 -19 0 -20 7 -20 90 0 83 1 90 20 90 19 0 20 -7 20 -90z m68 -78 c-4 -132 -22 -135 -26 -5 -3 103 2 133 19 116 6 -6 9 -53 7 -111z m680 45 l3 -28 -108 3 -108 3 -3 28 -3 28 108 -3 108 -3 3 -28z m-753 -133 c0 -28 -4 -39 -15 -39 -16 0 -26 45 -16 72 11 28 31 7 31 -33z m75 -559 c0 -33 -4 -45 -15 -45 -11 0 -15 11 -15 38 0 21 3 42 7 45 16 16 23 4 23 -38z m680 -5 l0 -40 -72 0 c-40 0 -90 3 -110 6 -35 6 -38 9 -38 40 l0 34 110 0 110 0 0 -40z m-752 -107 c-2 -44 -7 -58 -18 -58 -11 0 -16 14 -18 58 -3 52 -1 57 18 57 19 0 21 -5 18 -57z m70 -30 c-2 -42 -8 -68 -15 -71 -10 -3 -13 15 -13 67 0 57 3 71 15 71 13 0 15 -12 13 -67z m-73 -89 c0 -19 -5 -29 -15 -29 -16 0 -25 28 -16 51 10 25 31 10 31 -22z"></path><path d="M2210 2415 l-54 -55 97 -242 97 -243 2 -120 3 -120 79 -3 79 -3 49 48 48 47 0 111 0 111 95 240 c52 131 95 242 95 246 0 4 -7 14 -16 22 -11 11 -35 16 -83 16 l-67 0 -50 -52 c-30 -31 -58 -73 -68 -100 -10 -27 -19 -48 -21 -48 -2 0 -20 42 -40 94 -20 52 -43 97 -52 100 -8 3 -43 6 -77 6 -62 0 -62 0 -116 -55z m187 13 c5 -7 29 -65 52 -128 24 -63 47 -119 52 -125 20 -21 44 15 89 136 l47 124 67 3 c36 2 66 -1 66 -6 0 -5 -43 -116 -95 -247 l-95 -239 0 -108 0 -108 -65 0 -65 0 0 118 0 117 -90 223 c-49 123 -90 230 -90 238 0 18 113 20 127 2z m-118 -246 c34 -85 60 -156 58 -159 -3 -3 -10 4 -15 14 -20 37 -122 293 -122 305 0 27 20 -13 79 -160z m4 101 c2 -10 8 -26 12 -35 4 -10 3 -18 -3 -18 -8 0 -32 50 -32 66 0 12 19 1 23 -13z m63 -158 c25 -60 31 -87 16 -69 -17 19 -62 136 -51 132 6 -2 22 -30 35 -63z m70 -272 c-11 -11 -19 6 -11 24 8 17 8 17 12 0 3 -10 2 -21 -1 -24z m-26 -28 c0 -19 -4 -35 -10 -35 -5 0 -10 16 -10 35 0 19 5 35 10 35 6 0 10 -16 10 -35z m30 -30 c0 -25 -4 -45 -10 -45 -5 0 -10 20 -10 45 0 25 5 45 10 45 6 0 10 -20 10 -45z m-30 -40 c0 -8 -4 -15 -10 -15 -5 0 -10 7 -10 15 0 8 5 15 10 15 6 0 10 -7 10 -15z"></path><path d="M2163 1473 c-11 -29 5 -39 72 -41 60 -2 66 -1 55 13 -7 9 -10 18 -6 22 3 3 6 1 6 -5 0 -9 5 -9 20 0 16 10 22 10 32 -1 11 -10 10 -12 -6 -9 -10 1 -21 -3 -23 -10 -4 -10 45 -12 239 -10 l243 3 3 23 c3 22 2 22 -120 24 -420 6 -510 5 -515 -9z m107 -7 c0 -3 -4 -8 -10 -11 -5 -3 -10 -1 -10 4 0 6 5 11 10 11 6 0 10 -2 10 -4z m140 -7 c0 -5 -9 -9 -19 -9 -11 0 -22 4 -25 9 -3 5 6 9 19 9 14 0 25 -4 25 -9z m125 1 c3 -5 -3 -10 -15 -10 -12 0 -18 5 -15 10 3 6 10 10 15 10 5 0 12 -4 15 -10z"></path></g></svg>